<svg xmlns="http://www.w3.org/2000/svg" viewBox="0 0 512 512">
  <g class="fill-current">
    <path d="m512,128c0,76.8 0,179.19995 0,256.00003c0,70.71997 -57.28,127.99997 -128,127.99997c-76.79999,0 -179.2,0 -256,0c-70.72,0 -128,-57.28 -128,-127.99997c0,-76.80008 0,-179.20003 0,-256.00003c0,-70.72001 57.28,-128 128,-128c76.8,0 179.20001,0 256,0c70.72,0 128,57.27999 128,128z" />
  </g>
  <g class="fill-white dark:fill-inherit">
    <path d="m134.53362,381.94598c-13.89434,-11.59027 -19.12078,-29.94144 -15.67934,-55.05368c2.67691,-19.18787 8.85909,-35.35001 18.54716,-48.48563c8.66789,-11.71942 18.35594,-18.93073 29.06339,-21.63556c15.93399,-4.12086 26.83203,-0.57947 32.69682,10.62421c2.2944,4.24976 3.05922,8.49969 2.2944,12.74927c-0.63727,4.12097 -2.4857,6.6317 -5.54503,7.53387c-14.91451,3.99219 -23.83754,13.77988 -26.76929,29.36176c-1.27483,6.18146 -0.95604,11.52625 0.95604,16.03299c2.16692,4.63605 5.54503,6.95413 10.13371,6.95413c15.80672,0 26.9606,-12.7493 33.46165,-38.2478c2.16702,-8.11337 4.20657,-19.3811 6.11865,-33.8053c2.29449,-16.35533 3.82426,-26.59378 4.5891,-30.71416c5.60866,-27.30055 18.73834,-41.91785 39.38898,-43.84976c7.39337,-0.77267 14.46808,0.25746 21.22449,3.09073c6.11865,2.44684 9.43271,5.08693 9.9426,7.9202c0.38223,1.54538 -2.10349,7.85562 -7.45731,18.93074c-7.01074,14.68129 -12.55576,32.90259 -16.63486,54.6673c-0.89252,6.95419 1.40198,12.0412 6.88345,15.26074c5.35382,3.0907 11.91882,3.60583 19.69461,1.54535c8.41336,-2.31805 15.87003,-7.14734 22.37109,-14.48804c7.52048,-8.6283 12.61972,-19.57422 15.29681,-32.83922c5.73645,-28.71884 -1.72064,-49.45169 -22.37088,-62.20096c-14.02173,-8.6283 -32.44238,-12.94255 -55.25928,-12.94255c-33.90671,0 -58.70038,17.1281 -74.37653,51.38362c-1.91208,4.37863 -5.60876,6.11717 -11.08995,5.21571c-5.22624,-0.90157 -10.19774,-3.99229 -14.91451,-9.27261c-12.36456,-13.65062 -14.08563,-30.26372 -5.1626,-49.83804c5.99107,-13.13571 17.65494,-24.4687 34.99081,-33.99835c22.17981,-12.23435 49.77736,-18.35123 82.79584,-18.35123c47.16562,0 81.39279,12.42752 102.67603,37.28195c19.75711,23.1803 26.06699,54.08762 18.92957,92.72528c-6.3736,33.74133 -24.41129,59.04669 -54.11182,75.9183c-28.17047,15.96902 -54.23947,18.4798 -78.2012,7.53369c-8.5406,21.50574 -22.05191,38.11884 -40.53574,49.83823c-14.40411,9.14325 -28.5531,13.71512 -42.44814,13.71512c-17.46373,0 -31.29483,-4.18536 -41.49188,-12.55609l-0.00687,-0.00421zm211.4778,-5.98828c4.33405,-7.21133 5.29007,-14.48804 2.8681,-21.82813s-7.6485,-12.55609 -15.67883,-15.64642c-7.90286,-3.0907 -16.18851,-3.0907 -24.85699,0c-8.79578,2.96194 -15.36017,8.1134 -19.69461,15.4541c-4.46133,7.34045 -5.48111,14.68118 -3.05914,22.02106c2.54947,7.21149 7.77579,12.36292 15.67883,15.45404s16.25247,3.09076 25.04825,0c8.66788,-2.96198 15.23309,-8.1134 19.69458,-15.45404l-0.00018,-0.00061z" />
  </g>
</svg>
